<svg width="60" height="60" viewBox="0 0 60 60" fill="none" xmlns="http://www.w3.org/2000/svg">
<path d="M47.6775 12.3225C45.3635 9.99016 42.6098 8.14002 39.5758 6.87923C36.5419 5.61845 33.2879 4.97207 30.0025 4.97751C26.7163 4.97237 23.4617 5.61887 20.427 6.87962C17.3923 8.14037 14.6376 9.99034 12.3225 12.3225C2.57497 22.0675 2.57497 37.93 12.3225 47.6775C14.6377 50.0103 17.3927 51.8607 20.4279 53.1215C23.4631 54.3822 26.7183 55.0284 30.005 55.0225C33.2903 55.0283 36.5441 54.3823 39.578 53.1219C42.612 51.8616 45.3658 50.0119 47.68 47.68C57.4275 37.935 57.4275 22.0725 47.6775 12.3225ZM30.4525 10H29.555C29.7075 9.99751 29.8525 9.97751 30.005 9.97751C30.1575 9.97751 30.3 9.99751 30.4525 10ZM45.6075 42.5H40L36.855 48.79C34.661 49.6005 32.3413 50.0178 30.0025 50.0225C27.6593 50.0182 25.3352 49.6001 23.1375 48.7875L20 42.525H14.4125C12.3511 39.9622 10.957 36.9284 10.355 33.695L15 27.5L11.96 21.4175C12.93 19.354 14.2485 17.4731 15.8575 15.8575C18.1094 13.5977 20.8697 11.9098 23.9075 10.935L30 15L36.095 10.9375C39.1318 11.913 41.8918 13.5998 44.145 15.8575C45.7522 17.4712 47.0698 19.3494 48.04 21.41L45 27.5L49.645 33.695C49.0457 36.918 47.6587 39.9428 45.6075 42.5Z" fill="black"/>
<path d="M21.25 27.5L25 37.5H35L38.75 27.5L30 21.25L21.25 27.5Z" fill="black"/>
</svg>
